<svg id="Layer_1" enable-background="new 0 0 512 512" height="512" viewBox="0 0 512 512" width="512" xmlns="http://www.w3.org/2000/svg"><g><g><path clip-rule="evenodd" d="m192.945 151.088 175.347 144.033 97.992-199.622c4.479-9.099 5.272-19.475-2.523-25.909l-68.172-55.958c-7.795-6.435-17.83-3.628-25.88 2.523z" fill="#ffcd69" fill-rule="evenodd"/></g><g><path clip-rule="evenodd" d="m242.408 282.308 88.099 72.342 19.644 16.158 22.875-27.865c11.849-14.429 9.751-35.944-4.677-47.794l-.057-.028-175.347-144.033-.057-.028c-14.428-11.849-35.943-9.751-47.791 4.677l-22.875 27.865 19.672 16.158z" fill="#ffe6b4" fill-rule="evenodd"/></g><g><path clip-rule="evenodd" d="m97.051 299.628c11.423 0 20.778 9.326 20.778 20.75v14.57c0 11.424 9.326 20.779 20.749 20.779s20.777-9.383 20.777-20.779v-4.592c0-11.396 9.326-20.75 20.749-20.75s20.777 9.326 20.777 20.75v14.542c0 11.424 9.354 20.779 20.778 20.779 11.423 0 20.749-9.355 20.749-20.779v-62.591l-100.514-82.547c-13.436 7.654-25.738 17.859-36.141 30.53-21.628 26.306-31.209 58.566-29.48 90.088 0-11.424 9.354-20.75 20.778-20.75z" fill="#e8d0c1" fill-rule="evenodd"/></g><g><path clip-rule="evenodd" d="m30.778 460.414h87.447c-11.423 0-20.778 9.355-20.778 20.779s9.354 20.807 20.778 20.807h239.692c11.452 0 20.806-9.383 20.806-20.807s-9.354-20.779-20.806-20.779h123.276c11.452 0 20.806-9.355 20.806-20.807 0-11.424-9.354-20.779-20.806-20.779h-197.768c8.787-6.406 16.922-14.004 24.151-22.791 10.403-12.671 18-26.703 22.932-41.387l-88.099-72.342v62.591c0 11.424-9.326 20.779-20.749 20.779s-20.778-9.355-20.778-20.779v-14.542c0-11.424-9.354-20.75-20.777-20.75s-20.749 9.355-20.749 20.75v4.592c0 11.396-9.354 20.779-20.777 20.779s-20.749-9.355-20.749-20.779v-14.57c0-11.424-9.354-20.75-20.778-20.75s-20.778 9.326-20.778 20.75c1.984 35.207 18.113 69.536 47.508 93.688 2.013 1.644 4.082 3.232 6.151 4.762h-99.155c-11.423 0-20.778 9.355-20.778 20.779.001 11.451 9.355 20.806 20.778 20.806z" fill="#d1a184" fill-rule="evenodd"/></g><g><path d="m187.417 403.102c-5.523 0-10 4.477-10 10.001v10.262c0 16.831 13.706 30.524 30.551 30.524 16.831 0 30.523-13.693 30.523-30.524v-10.262c0-5.523-4.478-10.001-10-10.001s-10 4.477-10 10.001v10.262c0 5.802-4.72 10.523-10.522 10.523-5.818 0-10.55-4.721-10.55-10.523v-10.262c-.001-5.524-4.479-10.001-10.002-10.001z"/><path d="m481.193 408.828h-171.522c1.94-2.09 3.819-4.239 5.633-6.445 7.877-9.594 14.386-20.073 19.457-31.274l9.044 7.428c1.796 1.476 4.042 2.273 6.347 2.273.325 0 .651-.016.978-.048 2.64-.259 5.069-1.557 6.752-3.607l22.874-27.865c13.643-16.614 13.039-40.313-.328-56.193l94.829-193.181c7.298-14.827 5.333-29.402-5.15-38.056l-68.15-55.94c-10.474-8.646-25.155-7.768-38.314 2.286l-171.09 130.601c-7.702-4.253-16.516-6.093-25.5-5.216-11.716 1.145-22.258 6.756-29.685 15.8l-22.876 27.866c-3.503 4.268-2.885 10.569 1.383 14.074l9.052 7.435c-9.988 7.133-19.005 15.559-26.902 25.177-22.894 27.871-33.24 61.994-31.728 95.475-.01.32-.024.638-.024.961 0 .636.066 1.257.179 1.86 2.054 31.534 14.634 62.324 37.191 86.59h-72.864c-16.972-.001-30.779 13.806-30.779 30.778 0 16.987 13.807 30.808 30.779 30.808h58.616c-1.259 3.356-1.947 6.988-1.947 10.778 0 16.987 13.807 30.808 30.779 30.808h74.946c5.523 0 10-4.477 10-10.001 0-5.523-4.478-10.001-10-10.001h-74.946c-5.943 0-10.778-4.848-10.778-10.806 0-5.943 4.835-10.778 10.778-10.778 5.523 0 10-4.477 10-10.001s-4.478-10.001-10-10.001h-87.448c-5.943 0-10.778-4.848-10.778-10.806 0-5.943 4.835-10.778 10.778-10.778h99.153c4.317 0 8.147-2.77 9.497-6.87 1.352-4.1-.08-8.605-3.551-11.172-2.16-1.597-4.047-3.057-5.749-4.449-27.175-22.324-42.061-54.139-43.815-86.761.413-5.554 5.065-9.949 10.736-9.949 5.943 0 10.777 4.822 10.777 10.75v14.571c0 16.971 13.794 30.779 30.75 30.779 16.97 0 30.778-13.807 30.778-30.779v-4.593c0-5.928 4.821-10.75 10.748-10.75 5.943 0 10.778 4.822 10.778 10.75v14.542c0 16.972 13.807 30.779 30.778 30.779 16.955 0 30.749-13.807 30.749-30.779v-41.428l66.252 54.415c-4.595 11.492-10.9 22.167-18.809 31.8-6.531 7.941-14.04 15.027-22.318 21.063-3.498 2.551-4.958 7.063-3.616 11.179 1.341 4.116 5.179 6.902 9.508 6.902h197.768c5.958 0 10.806 4.835 10.806 10.778 0 5.958-4.848 10.806-10.806 10.806h-123.275c-5.523 0-10 4.477-10 10.001s4.478 10.001 10 10.001c5.958 0 10.805 4.835 10.805 10.778 0 5.958-4.847 10.806-10.805 10.806h-74.919c-5.523 0-10 4.477-10 10.001 0 5.523 4.478 10.001 10 10.001h74.919c16.986 0 30.806-13.82 30.806-30.808 0-3.79-.689-7.422-1.949-10.778h94.419c16.987 0 30.807-13.82 30.807-30.808-.001-16.972-13.821-30.779-30.808-30.779zm-105.412-384.727c2.621-2.003 9.176-6.279 13.463-2.739l68.15 55.94c4.3 3.549 1.374 10.82-.088 13.79l-92.42 188.273-155.846-127.982 44.086-33.653 62.105 51.008c1.86 1.528 4.108 2.273 6.341 2.273 2.89 0 5.757-1.247 7.734-3.654 3.506-4.268 2.887-10.57-1.381-14.075l-58.466-48.019 27.472-20.971 39.075 32.115c1.861 1.53 4.11 2.275 6.344 2.275 2.889 0 5.755-1.246 7.732-3.652 3.507-4.267 2.891-10.569-1.376-14.076l-35.443-29.13 27.447-20.952 21.862 17.943c1.859 1.527 4.106 2.271 6.338 2.271 2.891 0 5.759-1.248 7.736-3.656 3.504-4.269 2.884-10.571-1.386-14.075l-18.216-14.951zm-222.955 137.983c4.033-4.911 9.777-7.961 16.172-8.586 6.4-.63 12.627 1.253 17.544 5.291l175.193 143.869c.157.137.312.275.479.402 10.008 8.415 11.411 23.396 3.084 33.537l-16.528 20.134-11.519-9.461c-.283-.259-.579-.507-.894-.734l-87.503-71.869c-.06-.051-.121-.1-.182-.15l-112.377-92.297zm79.581 182.815c0 5.943-4.821 10.778-10.748 10.778-5.943 0-10.777-4.835-10.777-10.778v-14.542c0-16.956-13.807-30.751-30.779-30.751-16.955 0-30.749 13.795-30.749 30.751v4.593c0 5.842-4.935 10.778-10.777 10.778-5.927 0-10.749-4.835-10.749-10.778v-14.571c0-16.956-13.807-30.751-30.778-30.751-3.085 0-6.063.461-8.875 1.309 3.594-19.338 11.964-38.057 25.306-54.3 7.94-9.671 17.199-17.923 27.561-24.634l91.364 75.04v57.856z"/><path d="m238.072 491.999c-5.523 0-10 4.477-10 10.001 0 5.523 4.478 10.001 10 10.001h.057c5.523 0 9.972-4.477 9.972-10.001-.001-5.524-4.507-10.001-10.029-10.001z"/></g></g></svg>